<?xml version="1.0" encoding="UTF-8" standalone="no"?>
<!-- Created with Inkscape (http://www.inkscape.org/) -->

<svg
   width="256mm"
   height="256mm"
   viewBox="0 0 256 256"
   version="1.1"
   id="svg1"
   inkscape:export-filename="favicon.png"
   inkscape:export-xdpi="96"
   inkscape:export-ydpi="96"
   inkscape:version="1.4 (e7c3feb1, 2024-10-09)"
   sodipodi:docname="icon_icon_icon.svg"
   xml:space="preserve"
   xmlns:inkscape="http://www.inkscape.org/namespaces/inkscape"
   xmlns:sodipodi="http://sodipodi.sourceforge.net/DTD/sodipodi-0.dtd"
   xmlns="http://www.w3.org/2000/svg"
   xmlns:svg="http://www.w3.org/2000/svg"><sodipodi:namedview
     id="namedview1"
     pagecolor="#ffffff"
     bordercolor="#000000"
     borderopacity="0.25"
     inkscape:showpageshadow="2"
     inkscape:pageopacity="0.0"
     inkscape:pagecheckerboard="0"
     inkscape:deskcolor="#d1d1d1"
     inkscape:document-units="mm"
     inkscape:zoom="0.22627417"
     inkscape:cx="452.99028"
     inkscape:cy="-28.726213"
     inkscape:window-width="1536"
     inkscape:window-height="1186"
     inkscape:window-x="0"
     inkscape:window-y="30"
     inkscape:window-maximized="0"
     inkscape:current-layer="layer1" /><defs
     id="defs1"><rect
       x="226.55846"
       y="180.93211"
       width="684.39536"
       height="679.67539"
       id="rect2" /><pattern
       patternUnits="userSpaceOnUse"
       width="127.33576"
       height="339.07419"
       patternTransform="translate(433.52825,146.16896)"
       preserveAspectRatio="xMidYMid"
       id="pattern1"><path
         style="-inkscape-font-specification:'Bodoni 72, Normal';fill:#27dc23;stroke-width:0.539864"
         d="m 127.33576,335.17119 q 0,3.903 -5.85453,3.903 h -4.87876 q -2.92724,-1.46362 -66.351194,-1.46362 -12.196914,0 -24.393827,0.97576 -6.342388,0.48786 -19.5150616,0.48786 Q 0,339.07419 0,334.68333 q 0,-3.90305 12.684775,-4.39091 19.515061,-0.48786 22.930205,-4.3909 3.415143,-4.39087 3.415143,-28.29683 V 40.981644 q 0,-23.905965 -2.439383,-26.833209 Q 33.663458,9.2696693 9.7575307,8.2939087 0.48786142,7.8060472 0.48786142,4.3909039 0.48786142,0 6.3423874,0 L 72.20572,0.97576063 q 7.318148,0 28.29683,-0.48786142 L 119.04185,0 q 7.80605,0 7.80605,4.3909039 0,3.9030048 -21.46658,4.8787654 -12.196917,0.4878614 -15.124161,4.3909037 -2.439383,3.903005 -2.439383,20.490784 V 294.67744 q 0,27.80897 2.439383,30.24836 5.366627,5.36662 31.711971,6.34238 5.36663,0 5.36663,3.90301 z"
         id="text1"
         aria-label="I" /></pattern><pattern
       patternUnits="userSpaceOnUse"
       width="127.33576"
       height="339.07419"
       patternTransform="translate(433.52825,146.16896)"
       preserveAspectRatio="xMidYMid"
       id="pattern1-2"><path
         style="-inkscape-font-specification:'Bodoni 72, Normal';fill:#27dc23;stroke-width:0.539864"
         d="m 127.33576,335.17119 q 0,3.903 -5.85453,3.903 h -4.87876 q -2.92724,-1.46362 -66.351194,-1.46362 -12.196914,0 -24.393827,0.97576 -6.342388,0.48786 -19.5150616,0.48786 Q 0,339.07419 0,334.68333 q 0,-3.90305 12.684775,-4.39091 19.515061,-0.48786 22.930205,-4.3909 3.415143,-4.39087 3.415143,-28.29683 V 40.981644 q 0,-23.905965 -2.439383,-26.833209 Q 33.663458,9.2696693 9.7575307,8.2939087 0.48786142,7.8060472 0.48786142,4.3909039 0.48786142,0 6.3423874,0 L 72.20572,0.97576063 q 7.318148,0 28.29683,-0.48786142 L 119.04185,0 q 7.80605,0 7.80605,4.3909039 0,3.9030048 -21.46658,4.8787654 -12.196917,0.4878614 -15.124161,4.3909037 -2.439383,3.903005 -2.439383,20.490784 V 294.67744 q 0,27.80897 2.439383,30.24836 5.366627,5.36662 31.711971,6.34238 5.36663,0 5.36663,3.90301 z"
         id="text1-9"
         aria-label="I" /></pattern><pattern
       patternUnits="userSpaceOnUse"
       width="127.33576"
       height="339.07419"
       patternTransform="translate(433.52825,146.16896)"
       preserveAspectRatio="xMidYMid"
       id="pattern1-1"><path
         style="-inkscape-font-specification:'Bodoni 72, Normal';fill:#27dc23;stroke-width:0.539864"
         d="m 127.33576,335.17119 q 0,3.903 -5.85453,3.903 h -4.87876 q -2.92724,-1.46362 -66.351194,-1.46362 -12.196914,0 -24.393827,0.97576 -6.342388,0.48786 -19.5150616,0.48786 Q 0,339.07419 0,334.68333 q 0,-3.90305 12.684775,-4.39091 19.515061,-0.48786 22.930205,-4.3909 3.415143,-4.39087 3.415143,-28.29683 V 40.981644 q 0,-23.905965 -2.439383,-26.833209 Q 33.663458,9.2696693 9.7575307,8.2939087 0.48786142,7.8060472 0.48786142,4.3909039 0.48786142,0 6.3423874,0 L 72.20572,0.97576063 q 7.318148,0 28.29683,-0.48786142 L 119.04185,0 q 7.80605,0 7.80605,4.3909039 0,3.9030048 -21.46658,4.8787654 -12.196917,0.4878614 -15.124161,4.3909037 -2.439383,3.903005 -2.439383,20.490784 V 294.67744 q 0,27.80897 2.439383,30.24836 5.366627,5.36662 31.711971,6.34238 5.36663,0 5.36663,3.90301 z"
         id="text1-4"
         aria-label="I" /></pattern><pattern
       patternUnits="userSpaceOnUse"
       width="127.33576"
       height="339.07419"
       patternTransform="translate(433.52825,146.16896)"
       preserveAspectRatio="xMidYMid"
       id="pattern1-1-3"><path
         style="-inkscape-font-specification:'Bodoni 72, Normal';fill:#27dc23;stroke-width:0.539864"
         d="m 127.33576,335.17119 q 0,3.903 -5.85453,3.903 h -4.87876 q -2.92724,-1.46362 -66.351194,-1.46362 -12.196914,0 -24.393827,0.97576 -6.342388,0.48786 -19.5150616,0.48786 Q 0,339.07419 0,334.68333 q 0,-3.90305 12.684775,-4.39091 19.515061,-0.48786 22.930205,-4.3909 3.415143,-4.39087 3.415143,-28.29683 V 40.981644 q 0,-23.905965 -2.439383,-26.833209 Q 33.663458,9.2696693 9.7575307,8.2939087 0.48786142,7.8060472 0.48786142,4.3909039 0.48786142,0 6.3423874,0 L 72.20572,0.97576063 q 7.318148,0 28.29683,-0.48786142 L 119.04185,0 q 7.80605,0 7.80605,4.3909039 0,3.9030048 -21.46658,4.8787654 -12.196917,0.4878614 -15.124161,4.3909037 -2.439383,3.903005 -2.439383,20.490784 V 294.67744 q 0,27.80897 2.439383,30.24836 5.366627,5.36662 31.711971,6.34238 5.36663,0 5.36663,3.90301 z"
         id="text1-4-9"
         aria-label="I" /></pattern><pattern
       patternUnits="userSpaceOnUse"
       width="127.33576"
       height="339.07419"
       patternTransform="translate(433.52825,146.16896)"
       preserveAspectRatio="xMidYMid"
       id="pattern1-2-3"><path
         style="-inkscape-font-specification:'Bodoni 72, Normal';fill:#27dc23;stroke-width:0.539864"
         d="m 127.33576,335.17119 q 0,3.903 -5.85453,3.903 h -4.87876 q -2.92724,-1.46362 -66.351194,-1.46362 -12.196914,0 -24.393827,0.97576 -6.342388,0.48786 -19.5150616,0.48786 Q 0,339.07419 0,334.68333 q 0,-3.90305 12.684775,-4.39091 19.515061,-0.48786 22.930205,-4.3909 3.415143,-4.39087 3.415143,-28.29683 V 40.981644 q 0,-23.905965 -2.439383,-26.833209 Q 33.663458,9.2696693 9.7575307,8.2939087 0.48786142,7.8060472 0.48786142,4.3909039 0.48786142,0 6.3423874,0 L 72.20572,0.97576063 q 7.318148,0 28.29683,-0.48786142 L 119.04185,0 q 7.80605,0 7.80605,4.3909039 0,3.9030048 -21.46658,4.8787654 -12.196917,0.4878614 -15.124161,4.3909037 -2.439383,3.903005 -2.439383,20.490784 V 294.67744 q 0,27.80897 2.439383,30.24836 5.366627,5.36662 31.711971,6.34238 5.36663,0 5.36663,3.90301 z"
         id="text1-9-6"
         aria-label="I" /></pattern><pattern
       patternUnits="userSpaceOnUse"
       width="127.33576"
       height="339.07419"
       patternTransform="translate(433.52825,146.16896)"
       preserveAspectRatio="xMidYMid"
       id="pattern1-8"><path
         style="-inkscape-font-specification:'Bodoni 72, Normal';fill:#27dc23;stroke-width:0.539864"
         d="m 127.33576,335.17119 q 0,3.903 -5.85453,3.903 h -4.87876 q -2.92724,-1.46362 -66.351194,-1.46362 -12.196914,0 -24.393827,0.97576 -6.342388,0.48786 -19.5150616,0.48786 Q 0,339.07419 0,334.68333 q 0,-3.90305 12.684775,-4.39091 19.515061,-0.48786 22.930205,-4.3909 3.415143,-4.39087 3.415143,-28.29683 V 40.981644 q 0,-23.905965 -2.439383,-26.833209 Q 33.663458,9.2696693 9.7575307,8.2939087 0.48786142,7.8060472 0.48786142,4.3909039 0.48786142,0 6.3423874,0 L 72.20572,0.97576063 q 7.318148,0 28.29683,-0.48786142 L 119.04185,0 q 7.80605,0 7.80605,4.3909039 0,3.9030048 -21.46658,4.8787654 -12.196917,0.4878614 -15.124161,4.3909037 -2.439383,3.903005 -2.439383,20.490784 V 294.67744 q 0,27.80897 2.439383,30.24836 5.366627,5.36662 31.711971,6.34238 5.36663,0 5.36663,3.90301 z"
         id="text1-1"
         aria-label="I" /></pattern><pattern
       patternUnits="userSpaceOnUse"
       width="127.33576"
       height="339.07419"
       patternTransform="translate(433.52825,146.16896)"
       preserveAspectRatio="xMidYMid"
       id="pattern1-1-6"><path
         style="-inkscape-font-specification:'Bodoni 72, Normal';fill:#27dc23;stroke-width:0.539864"
         d="m 127.33576,335.17119 q 0,3.903 -5.85453,3.903 h -4.87876 q -2.92724,-1.46362 -66.351194,-1.46362 -12.196914,0 -24.393827,0.97576 -6.342388,0.48786 -19.5150616,0.48786 Q 0,339.07419 0,334.68333 q 0,-3.90305 12.684775,-4.39091 19.515061,-0.48786 22.930205,-4.3909 3.415143,-4.39087 3.415143,-28.29683 V 40.981644 q 0,-23.905965 -2.439383,-26.833209 Q 33.663458,9.2696693 9.7575307,8.2939087 0.48786142,7.8060472 0.48786142,4.3909039 0.48786142,0 6.3423874,0 L 72.20572,0.97576063 q 7.318148,0 28.29683,-0.48786142 L 119.04185,0 q 7.80605,0 7.80605,4.3909039 0,3.9030048 -21.46658,4.8787654 -12.196917,0.4878614 -15.124161,4.3909037 -2.439383,3.903005 -2.439383,20.490784 V 294.67744 q 0,27.80897 2.439383,30.24836 5.366627,5.36662 31.711971,6.34238 5.36663,0 5.36663,3.90301 z"
         id="text1-4-2"
         aria-label="I" /></pattern><pattern
       patternUnits="userSpaceOnUse"
       width="127.33576"
       height="339.07419"
       patternTransform="translate(433.52825,146.16896)"
       preserveAspectRatio="xMidYMid"
       id="pattern1-2-2"><path
         style="-inkscape-font-specification:'Bodoni 72, Normal';fill:#27dc23;stroke-width:0.539864"
         d="m 127.33576,335.17119 q 0,3.903 -5.85453,3.903 h -4.87876 q -2.92724,-1.46362 -66.351194,-1.46362 -12.196914,0 -24.393827,0.97576 -6.342388,0.48786 -19.5150616,0.48786 Q 0,339.07419 0,334.68333 q 0,-3.90305 12.684775,-4.39091 19.515061,-0.48786 22.930205,-4.3909 3.415143,-4.39087 3.415143,-28.29683 V 40.981644 q 0,-23.905965 -2.439383,-26.833209 Q 33.663458,9.2696693 9.7575307,8.2939087 0.48786142,7.8060472 0.48786142,4.3909039 0.48786142,0 6.3423874,0 L 72.20572,0.97576063 q 7.318148,0 28.29683,-0.48786142 L 119.04185,0 q 7.80605,0 7.80605,4.3909039 0,3.9030048 -21.46658,4.8787654 -12.196917,0.4878614 -15.124161,4.3909037 -2.439383,3.903005 -2.439383,20.490784 V 294.67744 q 0,27.80897 2.439383,30.24836 5.366627,5.36662 31.711971,6.34238 5.36663,0 5.36663,3.90301 z"
         id="text1-9-60"
         aria-label="I" /></pattern><pattern
       patternUnits="userSpaceOnUse"
       width="127.33576"
       height="339.07419"
       patternTransform="translate(433.52825,146.16896)"
       preserveAspectRatio="xMidYMid"
       id="pattern1-24"><path
         style="-inkscape-font-specification:'Bodoni 72, Normal';fill:#27dc23;stroke-width:0.539864"
         d="m 127.33576,335.17119 q 0,3.903 -5.85453,3.903 h -4.87876 q -2.92724,-1.46362 -66.351194,-1.46362 -12.196914,0 -24.393827,0.97576 -6.342388,0.48786 -19.5150616,0.48786 Q 0,339.07419 0,334.68333 q 0,-3.90305 12.684775,-4.39091 19.515061,-0.48786 22.930205,-4.3909 3.415143,-4.39087 3.415143,-28.29683 V 40.981644 q 0,-23.905965 -2.439383,-26.833209 Q 33.663458,9.2696693 9.7575307,8.2939087 0.48786142,7.8060472 0.48786142,4.3909039 0.48786142,0 6.3423874,0 L 72.20572,0.97576063 q 7.318148,0 28.29683,-0.48786142 L 119.04185,0 q 7.80605,0 7.80605,4.3909039 0,3.9030048 -21.46658,4.8787654 -12.196917,0.4878614 -15.124161,4.3909037 -2.439383,3.903005 -2.439383,20.490784 V 294.67744 q 0,27.80897 2.439383,30.24836 5.366627,5.36662 31.711971,6.34238 5.36663,0 5.36663,3.90301 z"
         id="text1-5"
         aria-label="I" /></pattern></defs><g
     inkscape:label="Layer 1"
     inkscape:groupmode="layer"
     id="layer1"><g
       id="g75"
       style="fill:#000000;fill-opacity:1"><g
         id="text4"
         transform="matrix(1.4876681,0,0,1.3504137,288.46668,-162.39274)"
         style="fill:#000000;fill-opacity:1"><g
           style="fill:#000000;fill-opacity:1"
           id="g27"
           transform="matrix(0,-0.47268761,0.42907678,0,-210.896,314.46189)" /></g><path
         style="-inkscape-font-specification:'PT Serif, Normal';fill:#000000;stroke-width:2.43813;fill-opacity:1"
         d="m 118.09143,127.72371 c 0,-2.78678 0.87731,-5.00589 2.63196,-6.65731 1.85786,-1.65143 4.28338,-2.47714 7.27659,-2.47714 2.99322,0 5.36713,0.82571 7.12178,2.47714 1.75464,1.65142 2.63195,3.87053 2.63195,6.65731 0,2.78678 -0.87731,5.00588 -2.63195,6.6573 -1.75465,1.54822 -4.12856,2.32232 -7.12178,2.32232 -2.99321,0 -5.41873,-0.7741 -7.27659,-2.32232 -1.75465,-1.65142 -2.63196,-3.87052 -2.63196,-6.6573 z"
         id="path67" /><path
         style="color:#000000;font-style:normal;font-variant:normal;font-weight:normal;font-stretch:normal;font-size:medium;line-height:normal;font-family:sans-serif;-inkscape-font-specification:'PT Serif, Normal';font-variant-ligatures:normal;font-variant-position:normal;font-variant-caps:normal;font-variant-numeric:normal;font-variant-alternates:normal;font-variant-east-asian:normal;font-feature-settings:normal;font-variation-settings:normal;text-indent:0;text-align:start;text-decoration-line:none;text-decoration-style:solid;text-decoration-color:#000000;letter-spacing:normal;word-spacing:normal;text-transform:none;writing-mode:lr-tb;direction:ltr;text-orientation:mixed;dominant-baseline:auto;baseline-shift:baseline;text-anchor:start;white-space:normal;shape-padding:0;shape-margin:0;inline-size:0;clip-rule:nonzero;display:inline;overflow:visible;visibility:visible;isolation:auto;mix-blend-mode:normal;color-interpolation:sRGB;color-interpolation-filters:linearRGB;solid-color:#000000;solid-opacity:1;vector-effect:none;fill:#000000;fill-opacity:1;fill-rule:nonzero;stroke:none;stroke-width:2.43813;stroke-linecap:butt;stroke-linejoin:miter;stroke-miterlimit:4;stroke-dasharray:none;stroke-dashoffset:0;stroke-opacity:1;-inkscape-stroke:none;color-rendering:auto;image-rendering:auto;shape-rendering:auto;text-rendering:auto;enable-background:accumulate;stop-color:#000000"
         d="m 145.18513,231.45385 h -34.37029 v -3.87053 c 1.54821,-0.82572 3.14804,-1.49659 4.79946,-2.01267 1.65141,-0.61929 3.45768,-1.18696 5.41873,-1.70303 v -60.8447 l -10.21819,-1.23857 V 157.759 c 2.99322,-1.23857 6.24446,-2.32231 9.75373,-3.25124 3.50927,-0.92893 7.01857,-1.70303 10.52784,-2.32232 h 3.87052 v 71.68218 c 2.06429,0.51607 3.92215,1.08374 5.57356,1.70303 1.65142,0.51608 3.19963,1.18695 4.64464,2.01267 z"
         id="path35" /><path
         style="color:#000000;font-style:normal;font-variant:normal;font-weight:normal;font-stretch:normal;font-size:medium;line-height:normal;font-family:sans-serif;-inkscape-font-specification:'PT Serif, Normal';font-variant-ligatures:normal;font-variant-position:normal;font-variant-caps:normal;font-variant-numeric:normal;font-variant-alternates:normal;font-variant-east-asian:normal;font-feature-settings:normal;font-variation-settings:normal;text-indent:0;text-align:start;text-decoration-line:none;text-decoration-style:solid;text-decoration-color:#000000;letter-spacing:normal;word-spacing:normal;text-transform:none;writing-mode:lr-tb;direction:ltr;text-orientation:mixed;dominant-baseline:auto;baseline-shift:baseline;text-anchor:start;white-space:normal;shape-padding:0;shape-margin:0;inline-size:0;clip-rule:nonzero;display:inline;overflow:visible;visibility:visible;isolation:auto;mix-blend-mode:normal;color-interpolation:sRGB;color-interpolation-filters:linearRGB;solid-color:#000000;solid-opacity:1;vector-effect:none;fill:#000000;fill-opacity:1;fill-rule:nonzero;stroke:none;stroke-width:2.43813;stroke-linecap:butt;stroke-linejoin:miter;stroke-miterlimit:4;stroke-dasharray:none;stroke-dashoffset:0;stroke-opacity:1;-inkscape-stroke:none;color-rendering:auto;image-rendering:auto;shape-rendering:auto;text-rendering:auto;enable-background:accumulate;stop-color:#000000"
         d="m 110.8126,24.181624 h 34.37029 v 3.870528 q -2.32232,1.238569 -4.79946,2.012675 -2.47713,0.928926 -5.41873,1.703032 v 60.844696 l 10.21819,1.238568 v 4.025349 q -4.48981,1.857854 -9.75373,3.251248 -5.26392,1.39339 -10.52784,2.32231 H 121.0308 V 31.767859 q -3.09643,-0.774106 -5.57356,-1.703032 -2.47714,-0.774106 -4.64464,-2.012675 z"
         id="path35-8" /><path
         style="color:#000000;font-style:normal;font-variant:normal;font-weight:normal;font-stretch:normal;font-size:medium;line-height:normal;font-family:sans-serif;-inkscape-font-specification:'PT Serif, Normal';font-variant-ligatures:normal;font-variant-position:normal;font-variant-caps:normal;font-variant-numeric:normal;font-variant-alternates:normal;font-variant-east-asian:normal;font-feature-settings:normal;font-variation-settings:normal;text-indent:0;text-align:start;text-decoration-line:none;text-decoration-style:solid;text-decoration-color:#000000;letter-spacing:normal;word-spacing:normal;text-transform:none;writing-mode:lr-tb;direction:ltr;text-orientation:mixed;dominant-baseline:auto;baseline-shift:baseline;text-anchor:start;white-space:normal;shape-padding:0;shape-margin:0;inline-size:0;clip-rule:nonzero;display:inline;overflow:visible;visibility:visible;isolation:auto;mix-blend-mode:normal;color-interpolation:sRGB;color-interpolation-filters:linearRGB;solid-color:#000000;solid-opacity:1;vector-effect:none;fill:#000000;fill-opacity:1;fill-rule:nonzero;stroke:none;stroke-width:2.43813;stroke-linecap:butt;stroke-linejoin:miter;stroke-miterlimit:4;stroke-dasharray:none;stroke-dashoffset:0;stroke-opacity:1;-inkscape-stroke:none;color-rendering:auto;image-rendering:auto;shape-rendering:auto;text-rendering:auto;enable-background:accumulate;stop-color:#000000"
         d="m 47.346152,194.4861 -17.185144,-29.76554 3.351975,-1.93526 q 2.233791,1.3919 4.142755,3.15011 2.043043,1.6808 4.184238,3.84125 l 52.693052,-30.42235 -4.036465,-9.4685 3.486055,-2.01267 q 3.853854,2.95936 7.692522,6.82135 3.83867,3.86199 7.27511,7.95622 l 1.93526,3.35197 -62.078583,35.84109 q 0.877816,3.06863 1.311911,5.67836 0.568173,2.53232 0.579289,5.02871 z"
         id="path35-7" /><path
         style="color:#000000;font-style:normal;font-variant:normal;font-weight:normal;font-stretch:normal;font-size:medium;line-height:normal;font-family:sans-serif;-inkscape-font-specification:'PT Serif, Normal';font-variant-ligatures:normal;font-variant-position:normal;font-variant-caps:normal;font-variant-numeric:normal;font-variant-alternates:normal;font-variant-east-asian:normal;font-feature-settings:normal;font-variation-settings:normal;text-indent:0;text-align:start;text-decoration-line:none;text-decoration-style:solid;text-decoration-color:#000000;letter-spacing:normal;word-spacing:normal;text-transform:none;writing-mode:lr-tb;direction:ltr;text-orientation:mixed;dominant-baseline:auto;baseline-shift:baseline;text-anchor:start;white-space:normal;shape-padding:0;shape-margin:0;inline-size:0;clip-rule:nonzero;display:inline;overflow:visible;visibility:visible;isolation:auto;mix-blend-mode:normal;color-interpolation:sRGB;color-interpolation-filters:linearRGB;solid-color:#000000;solid-opacity:1;vector-effect:none;fill:#000000;fill-opacity:1;fill-rule:nonzero;stroke:none;stroke-width:2.43813;stroke-linecap:butt;stroke-linejoin:miter;stroke-miterlimit:4;stroke-dasharray:none;stroke-dashoffset:0;stroke-opacity:1;-inkscape-stroke:none;color-rendering:auto;image-rendering:auto;shape-rendering:auto;text-rendering:auto;enable-background:accumulate;stop-color:#000000"
         d="m 209.66287,61.082487 17.18514,29.76554 -3.35197,1.935264 q -2.23379,-1.3919 -4.14276,-3.150112 -2.04304,-1.680801 -4.18424,-3.841249 l -52.69305,30.42235 4.03647,9.4685 -3.48606,2.01267 q -3.85385,-2.95936 -7.69252,-6.82135 -3.83867,-3.86199 -7.27511,-7.95622 l -1.93526,-3.35197 62.07858,-35.841091 q -0.87781,-3.068633 -1.31191,-5.678361 -0.56817,-2.532317 -0.57929,-5.028707 z"
         id="path35-8-5" /><path
         style="color:#000000;font-style:normal;font-variant:normal;font-weight:normal;font-stretch:normal;font-size:medium;line-height:normal;font-family:sans-serif;-inkscape-font-specification:'PT Serif, Normal';font-variant-ligatures:normal;font-variant-position:normal;font-variant-caps:normal;font-variant-numeric:normal;font-variant-alternates:normal;font-variant-east-asian:normal;font-feature-settings:normal;font-variation-settings:normal;text-indent:0;text-align:start;text-decoration-line:none;text-decoration-style:solid;text-decoration-color:#000000;letter-spacing:normal;word-spacing:normal;text-transform:none;writing-mode:lr-tb;direction:ltr;text-orientation:mixed;dominant-baseline:auto;baseline-shift:baseline;text-anchor:start;white-space:normal;shape-padding:0;shape-margin:0;inline-size:0;clip-rule:nonzero;display:inline;overflow:visible;visibility:visible;isolation:auto;mix-blend-mode:normal;color-interpolation:sRGB;color-interpolation-filters:linearRGB;solid-color:#000000;solid-opacity:1;vector-effect:none;fill:#000000;fill-opacity:1;fill-rule:nonzero;stroke:none;stroke-width:2.43813;stroke-linecap:butt;stroke-linejoin:miter;stroke-miterlimit:4;stroke-dasharray:none;stroke-dashoffset:0;stroke-opacity:1;-inkscape-stroke:none;color-rendering:auto;image-rendering:auto;shape-rendering:auto;text-rendering:auto;enable-background:accumulate;stop-color:#000000"
         d="m 30.13422,90.738324 17.185144,-29.765541 3.351975,1.935264 q -0.08853,2.63047 -0.6567,5.162787 -0.434095,2.609727 -1.2345,5.544281 l 52.693051,30.422345 6.18173,-8.229926 3.48605,2.012675 q -0.63595,4.817221 -2.0612,10.072601 -1.42525,5.25538 -3.25274,10.27853 l -1.93526,3.35197 -62.078581,-35.841084 q -2.218607,2.294528 -4.26165,3.975329 -1.908964,1.758211 -4.065344,3.016033 z"
         id="path35-6" /><path
         style="-inkscape-font-specification:'PT Serif, Normal';fill:#000000;stroke-width:2.43813;fill-opacity:1"
         d="m 226.82351,164.60695 -17.18514,29.76554 -3.35198,-1.93527 c 0.059,-1.75365 0.27793,-3.47458 0.6567,-5.16278 0.28939,-1.73982 0.70091,-3.58792 1.2345,-5.54429 l -52.69305,-30.42235 -6.18173,8.22993 -3.48605,-2.01267 c 0.42397,-3.21149 1.11104,-6.56902 2.0612,-10.0726 0.95016,-3.50358 2.03442,-6.92977 3.25274,-10.27853 l 1.93526,-3.35198 62.07858,35.84109 c 1.47908,-1.52969 2.89963,-2.8548 4.26165,-3.97533 1.27265,-1.17213 2.62775,-2.17748 4.06534,-3.01603 z"
         id="path35-8-3" /></g></g></svg>
